<svg xmlns="http://www.w3.org/2000/svg" xmlns:xlink="http://www.w3.org/1999/xlink" width="500" zoomAndPan="magnify" viewBox="0 0 375 374.999991" height="500" preserveAspectRatio="xMidYMid meet" version="1.0"><defs><g/></defs><g fill="#ffffff" fill-opacity="1"><g transform="translate(118.693838, 168.040889)"><g><path d="M 24.78125 -30.546875 L 24.78125 -24.734375 L 9.953125 -24.734375 L 9.953125 -18.21875 L 23.078125 -18.21875 L 23.078125 -12.40625 L 9.953125 -12.40625 L 9.953125 -5.8125 L 25.359375 -5.8125 L 25.359375 0 L 3.9375 0 L 3.9375 -30.546875 Z M 24.78125 -30.546875 "/></g></g></g><g fill="#ffffff" fill-opacity="1"><g transform="translate(146.334691, 168.040889)"><g><path d="M 10.5 -26.109375 L 10.5 -18.21875 L 14.90625 -18.21875 L 14.90625 -13.6875 L 10.5 -13.6875 L 10.5 0 L 4.6875 0 L 4.6875 -13.6875 L 1.875 -13.6875 L 1.875 -18.21875 L 4.6875 -18.21875 L 4.6875 -26.109375 Z M 10.5 -26.109375 "/></g></g></g><g fill="#ffffff" fill-opacity="1"><g transform="translate(162.686796, 168.040889)"><g><path d="M 15.609375 -19 C 17.316406 -19 18.742188 -18.488281 19.890625 -17.46875 C 21.046875 -16.445312 21.632812 -15.148438 21.65625 -13.578125 L 21.65625 0 L 15.859375 0 L 15.859375 -11.40625 C 15.773438 -13.175781 14.890625 -14.0625 13.203125 -14.0625 C 11.867188 -14.0625 10.800781 -13.4375 10 -12.1875 C 9.195312 -10.945312 8.796875 -9.347656 8.796875 -7.390625 L 8.796875 0 L 2.984375 0 L 2.984375 -32.75 L 8.671875 -32.75 L 8.671875 -15.265625 C 9.335938 -16.429688 10.257812 -17.34375 11.4375 -18 C 12.613281 -18.664062 14.003906 -19 15.609375 -19 Z M 15.609375 -19 "/></g></g></g><g fill="#ffffff" fill-opacity="1"><g transform="translate(187.339453, 168.040889)"><g><path d="M 8.796875 -18.140625 L 8.796875 0 L 2.984375 0 L 2.984375 -18.140625 Z M 2.859375 -24.5625 C 2.859375 -25.394531 3.179688 -26.09375 3.828125 -26.65625 C 4.484375 -27.226562 5.226562 -27.515625 6.0625 -27.515625 C 6.863281 -27.515625 7.582031 -27.226562 8.21875 -26.65625 C 8.851562 -26.09375 9.171875 -25.394531 9.171875 -24.5625 C 9.171875 -23.738281 8.851562 -23.050781 8.21875 -22.5 C 7.582031 -21.945312 6.863281 -21.671875 6.0625 -21.671875 C 5.226562 -21.671875 4.484375 -21.945312 3.828125 -22.5 C 3.179688 -23.050781 2.859375 -23.738281 2.859375 -24.5625 Z M 2.859375 -24.5625 "/></g></g></g><g fill="#ffffff" fill-opacity="1"><g transform="translate(199.126229, 168.040889)"><g><path d="M 18.390625 -1.625 C 17.585938 -0.976562 16.582031 -0.460938 15.375 -0.078125 C 14.175781 0.304688 12.992188 0.5 11.828125 0.5 C 8.671875 0.5 6.171875 -0.347656 4.328125 -2.046875 C 2.492188 -3.753906 1.578125 -6.101562 1.578125 -9.09375 C 1.578125 -11.03125 2.023438 -12.722656 2.921875 -14.171875 C 3.828125 -15.617188 5.007812 -16.722656 6.46875 -17.484375 C 7.9375 -18.253906 9.515625 -18.640625 11.203125 -18.640625 C 14.222656 -18.640625 16.671875 -17.832031 18.546875 -16.21875 L 15.734375 -12.484375 C 14.535156 -13.429688 13.207031 -13.90625 11.75 -13.90625 C 10.53125 -13.90625 9.5 -13.445312 8.65625 -12.53125 C 7.8125 -11.613281 7.390625 -10.46875 7.390625 -9.09375 C 7.390625 -7.707031 7.84375 -6.550781 8.75 -5.625 C 9.664062 -4.695312 10.859375 -4.234375 12.328125 -4.234375 C 13.597656 -4.234375 14.648438 -4.578125 15.484375 -5.265625 Z M 18.390625 -1.625 "/></g></g></g><g fill="#ffffff" fill-opacity="1"><g transform="translate(219.006067, 168.040889)"><g><path d="M 22.5 -18.140625 L 22.5 0 L 16.6875 0 L 16.6875 -2.234375 C 14.9375 -0.410156 12.914062 0.5 10.625 0.5 C 7.9375 0.5 5.753906 -0.300781 4.078125 -1.90625 C 2.410156 -3.507812 1.578125 -5.890625 1.578125 -9.046875 C 1.578125 -11.035156 1.984375 -12.785156 2.796875 -14.296875 C 3.617188 -15.804688 4.707031 -16.972656 6.0625 -17.796875 C 7.414062 -18.628906 8.867188 -19.046875 10.421875 -19.046875 C 12.023438 -19.046875 13.296875 -18.800781 14.234375 -18.3125 C 15.171875 -17.832031 16 -17.148438 16.71875 -16.265625 L 17.09375 -18.140625 Z M 12.28125 -4.234375 C 14.300781 -4.234375 15.769531 -5.144531 16.6875 -6.96875 L 16.6875 -11.40625 C 16.351562 -12.289062 15.773438 -12.992188 14.953125 -13.515625 C 14.140625 -14.046875 13.179688 -14.3125 12.078125 -14.3125 C 10.804688 -14.3125 9.71875 -13.84375 8.8125 -12.90625 C 7.914062 -11.96875 7.46875 -10.78125 7.46875 -9.34375 C 7.46875 -8.394531 7.6875 -7.523438 8.125 -6.734375 C 8.570312 -5.953125 9.160156 -5.335938 9.890625 -4.890625 C 10.628906 -4.453125 11.425781 -4.234375 12.28125 -4.234375 Z M 12.28125 -4.234375 "/></g></g></g><g fill="#ffffff" fill-opacity="1"><g transform="translate(244.488771, 168.040889)"><g><path d="M 8.796875 -32.75 L 8.796875 0 L 2.984375 0 L 2.984375 -32.75 Z M 8.796875 -32.75 "/></g></g></g><g fill="#ffffff" fill-opacity="1"><g transform="translate(98.687451, 224.472279)"><g><path d="M 26.84375 -2.53125 C 26.070312 -1.894531 24.84375 -1.257812 23.15625 -0.625 C 21.46875 0.0078125 19.628906 0.328125 17.640625 0.328125 C 14.453125 0.328125 11.679688 -0.359375 9.328125 -1.734375 C 6.984375 -3.117188 5.1875 -4.976562 3.9375 -7.3125 C 2.695312 -9.65625 2.078125 -12.222656 2.078125 -15.015625 C 2.078125 -18.085938 2.695312 -20.828125 3.9375 -23.234375 C 5.1875 -25.640625 6.929688 -27.515625 9.171875 -28.859375 C 11.410156 -30.203125 14 -30.875 16.9375 -30.875 C 18.789062 -30.875 20.503906 -30.625 22.078125 -30.125 C 23.648438 -29.625 25.035156 -29.003906 26.234375 -28.265625 L 23.859375 -22.578125 C 21.671875 -24.234375 19.429688 -25.0625 17.140625 -25.0625 C 15.585938 -25.0625 14.132812 -24.632812 12.78125 -23.78125 C 11.425781 -22.925781 10.347656 -21.753906 9.546875 -20.265625 C 8.742188 -18.785156 8.34375 -17.148438 8.34375 -15.359375 C 8.34375 -13.390625 8.710938 -11.664062 9.453125 -10.1875 C 10.203125 -8.707031 11.269531 -7.550781 12.65625 -6.71875 C 14.039062 -5.894531 15.660156 -5.484375 17.515625 -5.484375 C 19.003906 -5.484375 20.34375 -5.722656 21.53125 -6.203125 C 22.726562 -6.691406 23.671875 -7.265625 24.359375 -7.921875 Z M 26.84375 -2.53125 "/></g></g></g><g fill="#ffffff" fill-opacity="1"><g transform="translate(127.614898, 224.472279)"><g><path d="M 15.609375 -19 C 17.316406 -19 18.742188 -18.488281 19.890625 -17.46875 C 21.046875 -16.445312 21.632812 -15.148438 21.65625 -13.578125 L 21.65625 0 L 15.859375 0 L 15.859375 -11.40625 C 15.773438 -13.175781 14.890625 -14.0625 13.203125 -14.0625 C 11.867188 -14.0625 10.800781 -13.4375 10 -12.1875 C 9.195312 -10.945312 8.796875 -9.347656 8.796875 -7.390625 L 8.796875 0 L 2.984375 0 L 2.984375 -32.75 L 8.671875 -32.75 L 8.671875 -15.265625 C 9.335938 -16.429688 10.257812 -17.34375 11.4375 -18 C 12.613281 -18.664062 14.003906 -19 15.609375 -19 Z M 15.609375 -19 "/></g></g></g><g fill="#ffffff" fill-opacity="1"><g transform="translate(152.267555, 224.472279)"><g><path d="M 12.03125 -4.4375 C 13.195312 -4.4375 14.398438 -4.835938 15.640625 -5.640625 L 18.21875 -1.328125 C 17.21875 -0.773438 16.164062 -0.332031 15.0625 0 C 13.957031 0.332031 12.90625 0.5 11.90625 0.5 C 9.75 0.5 7.890625 0.09375 6.328125 -0.71875 C 4.765625 -1.539062 3.582031 -2.691406 2.78125 -4.171875 C 1.976562 -5.648438 1.578125 -7.34375 1.578125 -9.25 C 1.578125 -11.019531 2.039062 -12.648438 2.96875 -14.140625 C 3.894531 -15.640625 5.160156 -16.820312 6.765625 -17.6875 C 8.367188 -18.5625 10.125 -19 12.03125 -19 C 14.632812 -19 16.769531 -18.238281 18.4375 -16.71875 C 20.113281 -15.195312 21.203125 -13.023438 21.703125 -10.203125 L 8.421875 -5.96875 C 9.304688 -4.945312 10.507812 -4.4375 12.03125 -4.4375 Z M 11.578125 -14.484375 C 10.273438 -14.484375 9.234375 -14.039062 8.453125 -13.15625 C 7.679688 -12.269531 7.296875 -11.082031 7.296875 -9.59375 L 7.296875 -9.21875 L 15.265625 -11.90625 C 14.691406 -13.625 13.460938 -14.484375 11.578125 -14.484375 Z M 11.578125 -14.484375 "/></g></g></g><g fill="#ffffff" fill-opacity="1"><g transform="translate(175.21858, 224.472279)"><g><path d="M 18.390625 -1.625 C 17.585938 -0.976562 16.582031 -0.460938 15.375 -0.078125 C 14.175781 0.304688 12.992188 0.5 11.828125 0.5 C 8.671875 0.5 6.171875 -0.347656 4.328125 -2.046875 C 2.492188 -3.753906 1.578125 -6.101562 1.578125 -9.09375 C 1.578125 -11.03125 2.023438 -12.722656 2.921875 -14.171875 C 3.828125 -15.617188 5.007812 -16.722656 6.46875 -17.484375 C 7.9375 -18.253906 9.515625 -18.640625 11.203125 -18.640625 C 14.222656 -18.640625 16.671875 -17.832031 18.546875 -16.21875 L 15.734375 -12.484375 C 14.535156 -13.429688 13.207031 -13.90625 11.75 -13.90625 C 10.53125 -13.90625 9.5 -13.445312 8.65625 -12.53125 C 7.8125 -11.613281 7.390625 -10.46875 7.390625 -9.09375 C 7.390625 -7.707031 7.84375 -6.550781 8.75 -5.625 C 9.664062 -4.695312 10.859375 -4.234375 12.328125 -4.234375 C 13.597656 -4.234375 14.648438 -4.578125 15.484375 -5.265625 Z M 18.390625 -1.625 "/></g></g></g><g fill="#ffffff" fill-opacity="1"><g transform="translate(195.098418, 224.472279)"><g><path d="M 10.421875 -7.546875 L 8.796875 -6.34375 L 8.796875 0 L 2.984375 0 L 2.984375 -32.75 L 8.796875 -32.75 L 8.796875 -12.25 L 17.4375 -18.59375 L 20.953125 -15.484375 L 14.53125 -10.625 L 21.625 0 L 14.859375 0 Z M 10.421875 -7.546875 "/></g></g></g><g fill="#ffffff" fill-opacity="1"><g transform="translate(217.758934, 224.472279)"><g><path d="M 12.03125 -4.4375 C 13.195312 -4.4375 14.398438 -4.835938 15.640625 -5.640625 L 18.21875 -1.328125 C 17.21875 -0.773438 16.164062 -0.332031 15.0625 0 C 13.957031 0.332031 12.90625 0.5 11.90625 0.5 C 9.75 0.5 7.890625 0.09375 6.328125 -0.71875 C 4.765625 -1.539062 3.582031 -2.691406 2.78125 -4.171875 C 1.976562 -5.648438 1.578125 -7.34375 1.578125 -9.25 C 1.578125 -11.019531 2.039062 -12.648438 2.96875 -14.140625 C 3.894531 -15.640625 5.160156 -16.820312 6.765625 -17.6875 C 8.367188 -18.5625 10.125 -19 12.03125 -19 C 14.632812 -19 16.769531 -18.238281 18.4375 -16.71875 C 20.113281 -15.195312 21.203125 -13.023438 21.703125 -10.203125 L 8.421875 -5.96875 C 9.304688 -4.945312 10.507812 -4.4375 12.03125 -4.4375 Z M 11.578125 -14.484375 C 10.273438 -14.484375 9.234375 -14.039062 8.453125 -13.15625 C 7.679688 -12.269531 7.296875 -11.082031 7.296875 -9.59375 L 7.296875 -9.21875 L 15.265625 -11.90625 C 14.691406 -13.625 13.460938 -14.484375 11.578125 -14.484375 Z M 11.578125 -14.484375 "/></g></g></g><g fill="#ffffff" fill-opacity="1"><g transform="translate(240.709959, 224.472279)"><g><path d="M 8.671875 -13.984375 C 9.171875 -14.953125 9.851562 -15.820312 10.71875 -16.59375 C 11.59375 -17.375 12.488281 -17.976562 13.40625 -18.40625 C 14.320312 -18.832031 15.039062 -19.046875 15.5625 -19.046875 L 15.265625 -13.234375 C 15.097656 -13.265625 14.863281 -13.28125 14.5625 -13.28125 C 13.40625 -13.28125 12.382812 -12.972656 11.5 -12.359375 C 10.613281 -11.753906 9.929688 -10.972656 9.453125 -10.015625 C 8.984375 -9.066406 8.75 -8.09375 8.75 -7.09375 L 8.75 0 L 2.984375 0 L 2.984375 -18.140625 L 8.21875 -18.140625 Z M 8.671875 -13.984375 "/></g></g></g><g fill="#ffffff" fill-opacity="1"><g transform="translate(257.726101, 224.472279)"><g><path d="M 8.875 0.375 C 7.382812 0.375 5.988281 0.113281 4.6875 -0.40625 C 3.382812 -0.9375 2.304688 -1.671875 1.453125 -2.609375 L 3.859375 -5.8125 C 5.460938 -4.3125 6.972656 -3.5625 8.390625 -3.5625 C 9.128906 -3.5625 9.726562 -3.679688 10.1875 -3.921875 C 10.644531 -4.160156 10.875 -4.515625 10.875 -4.984375 C 10.875 -5.535156 10.609375 -5.957031 10.078125 -6.25 C 9.554688 -6.539062 8.96875 -6.78125 8.3125 -6.96875 C 7.664062 -7.164062 7.234375 -7.289062 7.015625 -7.34375 C 5.429688 -7.84375 4.253906 -8.582031 3.484375 -9.5625 C 2.710938 -10.539062 2.328125 -11.671875 2.328125 -12.953125 C 2.328125 -13.921875 2.582031 -14.867188 3.09375 -15.796875 C 3.601562 -16.722656 4.394531 -17.484375 5.46875 -18.078125 C 6.550781 -18.671875 7.894531 -18.96875 9.5 -18.96875 C 11 -18.96875 12.273438 -18.8125 13.328125 -18.5 C 14.378906 -18.195312 15.382812 -17.703125 16.34375 -17.015625 L 14.15625 -13.609375 C 13.601562 -14.054688 12.984375 -14.421875 12.296875 -14.703125 C 11.617188 -14.992188 11.003906 -15.140625 10.453125 -15.140625 C 9.796875 -15.140625 9.257812 -15 8.84375 -14.71875 C 8.425781 -14.445312 8.21875 -14.117188 8.21875 -13.734375 C 8.1875 -13.148438 8.425781 -12.710938 8.9375 -12.421875 C 9.457031 -12.140625 10.253906 -11.84375 11.328125 -11.53125 C 11.492188 -11.476562 11.664062 -11.421875 11.84375 -11.359375 C 12.03125 -11.304688 12.21875 -11.253906 12.40625 -11.203125 C 15.257812 -10.265625 16.6875 -8.550781 16.6875 -6.0625 C 16.6875 -4.894531 16.394531 -3.828125 15.8125 -2.859375 C 15.226562 -1.890625 14.347656 -1.109375 13.171875 -0.515625 C 11.992188 0.078125 10.5625 0.375 8.875 0.375 Z M 8.875 0.375 "/></g></g></g></svg>